<?xml version="1.0" standalone="no"?>
<!DOCTYPE svg PUBLIC "-//W3C//DTD SVG 20010904//EN"
 "http://www.w3.org/TR/2001/REC-SVG-20010904/DTD/svg10.dtd">
<svg version="1.0" xmlns="http://www.w3.org/2000/svg"
 width="1138.000000pt" height="1280.000000pt" viewBox="0 0 1138.000000 1280.000000"
 preserveAspectRatio="xMidYMid meet">
<metadata>
Created by potrace 1.15, written by Peter Selinger 2001-2017
</metadata>
<g transform="translate(0.000000,1280.000000) scale(0.100000,-0.100000)"
fill="#000000" stroke="none">
<path d="M5465 12794 c-207 -20 -279 -29 -402 -49 -1075 -180 -2027 -853
-2565 -1812 -198 -355 -332 -727 -407 -1138 -55 -304 -61 -447 -61 -1582 l0
-1003 -189 0 c-155 0 -191 -3 -201 -15 -16 -20 -24 -6609 -7 -6640 5 -11 15
-23 21 -27 6 -4 531 -9 1166 -10 635 -1 1056 -5 935 -8 -142 -3 -208 -8 -185
-13 97 -22 120 -26 185 -36 199 -30 443 -57 635 -71 80 -5 222 -15 315 -22
236 -18 1734 -18 1970 0 94 7 235 17 315 22 192 14 436 41 635 71 65 10 88 14
185 36 23 5 -43 10 -185 13 -121 3 300 7 935 8 635 1 1160 6 1166 10 6 4 16
16 21 27 17 32 10 6620 -7 6640 -10 12 -45 15 -201 15 l-189 0 0 1003 c0 1135
-6 1278 -61 1582 -133 725 -463 1369 -969 1889 -605 622 -1330 980 -2210 1091
-118 15 -554 28 -645 19z m645 -1043 c1039 -177 1847 -903 2128 -1911 35 -123
67 -303 82 -449 6 -63 10 -502 10 -1142 l0 -1039 -2640 0 -2640 0 0 1039 c0
638 4 1079 10 1142 62 621 324 1180 758 1616 395 397 898 654 1452 742 177 29
187 29 465 26 199 -2 275 -7 375 -24z"/>
</g>
</svg>
