<svg width="199" height="200" viewBox="0 0 199 200" fill="white" xmlns="http://www.w3.org/2000/svg">
<g clip-path="url(#clip0_6_2)">
<path d="M99.4408 199.312C97.0703 199.322 94.7224 198.852 92.5388 197.929C90.3553 197.006 88.3815 195.651 86.7365 193.944C85.913 193.287 84.879 192.952 83.8269 193.001C83.3332 192.988 82.8429 193.086 82.3925 193.288C79.8652 194.621 77.0535 195.324 74.1963 195.337C70.8863 195.349 67.6405 194.424 64.834 192.669C62.0275 190.914 59.7749 188.401 58.3365 185.42C57.9316 184.829 57.3952 184.34 56.7694 183.992C56.1436 183.643 55.4456 183.445 54.7301 183.412H54.4432C53.4278 183.583 52.3994 183.665 51.3696 183.657C47.1133 183.686 42.9927 182.161 39.7792 179.37C36.5657 176.579 34.4797 172.713 33.9116 168.494C33.6986 167.754 33.3012 167.08 32.7564 166.535C32.2116 165.99 31.5374 165.593 30.797 165.38C28.4547 165.052 26.2023 164.256 24.1741 163.04C22.1458 161.824 20.3832 160.211 18.9912 158.299C17.5992 156.387 16.6064 154.214 16.0718 151.911C15.5373 149.607 15.472 147.219 15.8798 144.889C15.9443 144.093 15.7962 143.294 15.4506 142.574C15.105 141.854 14.5742 141.239 13.9127 140.791C11.7833 139.753 9.88498 138.297 8.33115 136.509C6.77733 134.721 5.5999 132.639 4.86924 130.385C4.13857 128.132 3.86967 125.755 4.07859 123.395C4.28752 121.036 4.96999 118.743 6.08522 116.653C6.34985 115.93 6.42476 115.151 6.3028 114.39C6.18084 113.63 5.86607 112.913 5.38853 112.309C3.68431 110.665 2.32881 108.695 1.40298 106.516C0.477159 104.336 0 101.993 0 99.6252C0 97.2574 0.477159 94.914 1.40298 92.7347C2.32881 90.5555 3.68431 88.5852 5.38853 86.9414C5.85903 86.3416 6.16972 85.6323 6.29156 84.8797C6.4134 84.1272 6.34241 83.3561 6.08522 82.6384C4.96999 80.5487 4.28752 78.2555 4.07859 75.896C3.86967 73.5365 4.13857 71.1592 4.86924 68.9059C5.5999 66.6527 6.77733 64.57 8.33115 62.7821C9.88498 60.9942 11.7833 59.538 13.9127 58.5004C14.5742 58.0528 15.105 57.4375 15.4506 56.7174C15.7962 55.9973 15.9443 55.1984 15.8798 54.4022C15.472 52.0726 15.5373 49.6847 16.0718 47.3808C16.6064 45.0769 17.5992 42.9042 18.9912 40.9922C20.3832 39.0801 22.1458 37.4678 24.1741 36.2513C26.2023 35.0349 28.4547 34.2391 30.797 33.9116C31.5374 33.6986 32.2116 33.3012 32.7564 32.7564C33.3012 32.2116 33.6986 31.5374 33.9116 30.797C34.4797 26.5787 36.5657 22.7121 39.7792 19.921C42.9927 17.1299 47.1133 15.6058 51.3696 15.6339C52.4005 15.6407 53.4289 15.7366 54.4432 15.9207H54.7301C55.4456 15.8877 56.1436 15.6892 56.7694 15.3407C57.3952 14.9923 57.9316 14.5035 58.3365 13.9127C59.7749 10.9315 62.0275 8.41828 64.834 6.66333C67.6405 4.90837 70.8863 3.98335 74.1963 3.99517C77.0535 4.00836 79.8652 4.7113 82.3925 6.04424C82.8429 6.24666 83.3332 6.34472 83.8269 6.33111C84.879 6.38004 85.913 6.04507 86.7365 5.38853C88.3803 3.68431 90.3506 2.32881 92.5298 1.40298C94.7091 0.477159 97.0525 0 99.4203 0C101.788 0 104.131 0.477159 106.311 1.40298C108.49 2.32881 110.46 3.68431 112.104 5.38853C112.928 6.04507 113.962 6.38004 115.014 6.33111C115.507 6.34472 115.998 6.24666 116.448 6.04424C118.975 4.7113 121.787 4.00836 124.644 3.99517C127.954 3.98335 131.2 4.90837 134.007 6.66333C136.813 8.41828 139.066 10.9315 140.504 13.9127C140.909 14.5035 141.445 14.9923 142.071 15.3407C142.697 15.6892 143.395 15.8877 144.11 15.9207H144.397C146.727 15.5129 149.115 15.5783 151.419 16.1128C153.723 16.6474 155.895 17.6402 157.807 19.0322C159.719 20.4242 161.332 22.1868 162.548 24.215C163.765 26.2433 164.56 28.4957 164.888 30.838C165.101 31.5784 165.498 32.2526 166.043 32.7974C166.588 33.3421 167.262 33.7396 168.003 33.9525C170.345 34.2801 172.597 35.0759 174.626 36.2923C176.654 37.5088 178.416 39.1211 179.808 41.0331C181.2 42.9452 182.193 45.1179 182.728 47.4218C183.262 49.7257 183.328 52.1136 182.92 54.4432C182.864 55.2427 183.02 56.0427 183.373 56.7623C183.725 57.482 184.262 58.0957 184.928 58.5414C187.057 59.579 188.956 61.0352 190.509 62.8231C192.063 64.6109 193.241 66.6937 193.971 68.9469C194.702 71.2001 194.971 73.5775 194.762 75.937C194.553 78.2965 193.871 80.5896 192.755 82.6794C192.491 83.4027 192.416 84.1817 192.538 84.9422C192.66 85.7026 192.974 86.4192 193.452 87.0234C195.156 88.6671 196.512 90.6375 197.438 92.8167C198.363 94.9959 198.841 97.3394 198.841 99.7072C198.841 102.075 198.363 104.418 197.438 106.598C196.512 108.777 195.156 110.747 193.452 112.391C192.982 112.991 192.671 113.7 192.549 114.453C192.427 115.205 192.498 115.976 192.755 116.694C193.871 118.784 194.553 121.077 194.762 123.436C194.971 125.796 194.702 128.173 193.971 130.426C193.241 132.68 192.063 134.762 190.509 136.55C188.956 138.338 187.057 139.794 184.928 140.832C184.259 141.275 183.72 141.888 183.367 142.608C183.014 143.329 182.86 144.13 182.92 144.93C183.328 147.26 183.262 149.648 182.728 151.952C182.193 154.255 181.2 156.428 179.808 158.34C178.416 160.252 176.654 161.865 174.626 163.081C172.597 164.297 170.345 165.093 168.003 165.421C167.262 165.634 166.588 166.031 166.043 166.576C165.498 167.121 165.101 167.795 164.888 168.535C164.32 172.754 162.234 176.62 159.02 179.411C155.807 182.202 151.686 183.727 147.43 183.698C146.399 183.692 145.371 183.596 144.356 183.412H143.988C143.272 183.445 142.574 183.643 141.948 183.992C141.322 184.34 140.786 184.829 140.381 185.42C138.943 188.401 136.69 190.914 133.884 192.669C131.077 194.424 127.831 195.349 124.521 195.337C121.664 195.322 118.853 194.62 116.325 193.288C115.875 193.086 115.384 192.988 114.891 193.001C113.839 192.952 112.805 193.287 111.981 193.944C110.355 195.631 108.408 196.975 106.254 197.897C104.1 198.819 101.784 199.3 99.4408 199.312V199.312ZM83.8678 192.059C85.1688 192.004 86.4423 192.443 87.4332 193.288C88.9927 194.903 90.8613 196.187 92.9278 197.065C94.9943 197.942 97.2163 198.394 99.4613 198.394C101.706 198.394 103.928 197.942 105.995 197.065C108.061 196.187 109.93 194.903 111.489 193.288C112.48 192.443 113.754 192.004 115.055 192.059C115.69 192.037 116.321 192.163 116.899 192.427C119.323 193.713 122.024 194.388 124.767 194.395C127.904 194.407 130.98 193.533 133.641 191.872C136.302 190.212 138.44 187.833 139.807 185.01C140.292 184.27 140.946 183.656 141.716 183.222C142.486 182.787 143.35 182.543 144.233 182.51H144.684C145.645 182.675 146.619 182.757 147.594 182.756C151.603 182.742 155.471 181.278 158.484 178.634C161.498 175.99 163.452 172.344 163.986 168.371C164.226 167.444 164.71 166.598 165.388 165.92C166.065 165.243 166.911 164.759 167.839 164.519C170.062 164.207 172.2 163.45 174.124 162.293C176.049 161.136 177.721 159.604 179.04 157.787C180.36 155.971 181.3 153.907 181.804 151.719C182.309 149.531 182.368 147.264 181.977 145.053C181.918 144.091 182.118 143.13 182.558 142.272C182.998 141.413 183.661 140.69 184.477 140.176C186.501 139.195 188.306 137.815 189.784 136.119C191.262 134.424 192.383 132.447 193.079 130.308C193.776 128.17 194.033 125.912 193.837 123.671C193.64 121.431 192.994 119.253 191.936 117.268C191.58 116.372 191.473 115.397 191.624 114.445C191.776 113.493 192.18 112.6 192.796 111.858C194.411 110.299 195.696 108.43 196.573 106.364C197.45 104.297 197.902 102.075 197.902 99.8301C197.902 97.5851 197.45 95.3631 196.573 93.2967C195.696 91.2302 194.411 89.3615 192.796 87.8021C192.18 87.0607 191.776 86.1671 191.624 85.2153C191.473 84.2635 191.58 83.2884 191.936 82.3925C192.994 80.4075 193.64 78.2294 193.837 75.9887C194.033 73.7479 193.776 71.4906 193.079 69.3517C192.383 67.2129 191.262 65.2365 189.784 63.541C188.306 61.8454 186.501 60.4656 184.477 59.4839C183.661 58.9705 182.998 58.2467 182.558 57.3885C182.118 56.5304 181.918 55.5696 181.977 54.6072C182.368 52.3961 182.309 50.129 181.804 47.9411C181.3 45.7532 180.36 43.6894 179.04 41.8727C177.721 40.056 176.049 38.5237 174.124 37.3671C172.2 36.2106 170.062 35.4535 167.839 35.141C166.911 34.901 166.065 34.4172 165.388 33.7398C164.71 33.0624 164.226 32.2162 163.986 31.2888C163.452 27.3157 161.498 23.6704 158.484 21.0263C155.471 18.3822 151.603 16.918 147.594 16.9043C146.619 16.9021 145.645 16.9843 144.684 17.1502H143.988C143.104 17.1176 142.241 16.8736 141.47 16.4387C140.7 16.0037 140.046 15.3904 139.562 14.6503C138.194 11.8274 136.057 9.44853 133.395 7.78805C130.734 6.12757 127.658 5.25313 124.521 5.26559C121.777 5.2706 119.076 5.94587 116.653 7.2327C116.075 7.49694 115.444 7.6232 114.809 7.60153C113.508 7.65186 112.236 7.21322 111.243 6.37209C109.684 4.75714 107.815 3.47277 105.749 2.59556C103.682 1.71834 101.46 1.26626 99.2154 1.26626C96.9704 1.26626 94.7484 1.71834 92.6819 2.59556C90.6154 3.47277 88.7468 4.75714 87.1873 6.37209C86.1944 7.21322 84.9223 7.65186 83.622 7.60153C82.987 7.6232 82.3556 7.49694 81.7778 7.2327C79.3538 5.94743 76.6531 5.27225 73.9094 5.26559C70.7727 5.25313 67.6964 6.12757 65.0353 7.78805C62.3742 9.44853 60.2367 11.8274 58.8692 14.6503C58.385 15.3904 57.7304 16.0037 56.9603 16.4387C56.1902 16.8736 55.3271 17.1176 54.4432 17.1502H54.2383C53.2773 16.9848 52.3038 16.9025 51.3286 16.9043C47.3198 16.918 43.4514 18.3822 40.4382 21.0263C37.425 23.6704 35.4706 27.3157 34.9361 31.2888C34.6961 32.2162 34.2123 33.0624 33.5349 33.7398C32.8575 34.4172 32.0113 34.901 31.0838 35.141C28.8604 35.4535 26.7226 36.2106 24.7981 37.3671C22.8736 38.5237 21.2017 40.056 19.8822 41.8727C18.5627 43.6894 17.6227 45.7532 17.1181 47.9411C16.6135 50.129 16.5547 52.3961 16.9453 54.6072C17.0092 55.5657 16.8148 56.5238 16.3823 57.3816C15.9498 58.2394 15.2951 58.9654 14.4864 59.4839C12.4625 60.4656 10.6576 61.8454 9.17949 63.541C7.70142 65.2365 6.58065 67.2129 5.88428 69.3517C5.18792 71.4906 4.93026 73.7479 5.12675 75.9887C5.32323 78.2294 5.96981 80.4075 7.02779 82.3925C7.38313 83.2884 7.49073 84.2635 7.3393 85.2153C7.18788 86.1671 6.783 87.0607 6.16718 87.8021C4.55223 89.3615 3.26786 91.2302 2.39065 93.2967C1.51344 95.3631 1.06135 97.5851 1.06135 99.8301C1.06135 102.075 1.51344 104.297 2.39065 106.364C3.26786 108.43 4.55223 110.299 6.16718 111.858C6.783 112.6 7.18788 113.493 7.3393 114.445C7.49073 115.397 7.38313 116.372 7.02779 117.268C5.96981 119.253 5.32323 121.431 5.12675 123.671C4.93026 125.912 5.18792 128.17 5.88428 130.308C6.58065 132.447 7.70142 134.424 9.17949 136.119C10.6576 137.815 12.4625 139.195 14.4864 140.176C15.3027 140.69 15.9656 141.413 16.4055 142.272C16.8453 143.13 17.046 144.091 16.9863 145.053C16.5957 147.264 16.6545 149.531 17.1591 151.719C17.6636 153.907 18.6037 155.971 19.9232 157.787C21.2427 159.604 22.9146 161.136 24.8391 162.293C26.7636 163.45 28.9014 164.207 31.1248 164.519C32.0522 164.759 32.8985 165.243 33.5759 165.92C34.2533 166.598 34.7371 167.444 34.9771 168.371C35.5116 172.344 37.466 175.99 40.4792 178.634C43.4924 181.278 47.3608 182.742 51.3696 182.756C52.3448 182.758 53.3183 182.676 54.2793 182.51H54.7301C55.6139 182.543 56.4771 182.787 57.2472 183.222C58.0173 183.656 58.6719 184.27 59.1561 185.01C60.5235 187.833 62.6611 190.212 65.3222 191.872C67.9833 193.533 71.0596 194.407 74.1963 194.395C76.9401 194.39 79.6412 193.714 82.0647 192.427C82.6175 192.175 83.2194 192.049 83.8269 192.059H83.8678Z" fill="white"/>
<path d="M99.4408 195.214C97.6292 195.221 95.835 194.861 94.166 194.157C92.4969 193.453 90.9874 192.418 89.7282 191.116C88.1448 189.632 86.0372 188.836 83.8678 188.903C82.7044 188.873 81.5511 189.126 80.5074 189.641C78.5512 190.681 76.371 191.23 74.1553 191.239C71.5969 191.276 69.081 190.583 66.9032 189.24C64.7254 187.897 62.9761 185.96 61.8609 183.657C61.0267 182.265 59.8122 181.139 58.3602 180.413C56.9083 179.687 55.2792 179.391 53.6646 179.559C52.8798 179.697 52.0844 179.766 51.2877 179.764C48.0282 179.774 44.8763 178.599 42.4186 176.458C39.961 174.317 38.365 171.355 37.9277 168.125C37.5933 166.501 36.7901 165.011 35.6174 163.838C34.4447 162.665 32.9541 161.862 31.3297 161.527C29.5323 161.274 27.8042 160.662 26.2484 159.727C24.6926 158.792 23.3409 157.553 22.274 156.085C21.2071 154.616 20.4466 152.948 20.0381 151.18C19.6295 149.411 19.5812 147.578 19.8959 145.791C20.0745 144.175 19.7827 142.542 19.0557 141.088C18.3288 139.634 17.1975 138.421 15.7978 137.594C14.1623 136.8 12.7039 135.683 11.5097 134.312C10.3156 132.941 9.41023 131.342 8.84784 129.613C8.28546 127.884 8.07758 126.059 8.23663 124.248C8.39569 122.436 8.91841 120.676 9.77354 119.071C10.4567 117.558 10.681 115.878 10.4188 114.239C10.1566 112.6 9.41925 111.074 8.29821 109.85C6.99061 108.589 5.95059 107.077 5.24025 105.404C4.52991 103.732 4.16381 101.934 4.16381 100.117C4.16381 98.3 4.52991 96.5018 5.24025 94.8295C5.95059 93.1573 6.99061 91.6453 8.29821 90.3838C9.41925 89.1598 10.1566 87.6337 10.4188 85.9947C10.681 84.3557 10.4567 82.6758 9.77354 81.163C8.91841 79.5583 8.39569 77.7975 8.23663 75.9861C8.07758 74.1747 8.28546 72.3498 8.84784 70.6206C9.41023 68.8914 10.3156 67.2933 11.5097 65.922C12.7039 64.5506 14.1623 63.4342 15.7978 62.6395C17.1975 61.8128 18.3288 60.5997 19.0557 59.1458C19.7827 57.6918 20.0745 56.0589 19.8959 54.4432C19.5812 52.6555 19.6295 50.8228 20.0381 49.0542C20.4466 47.2856 21.2071 45.6174 22.274 44.1489C23.3409 42.6804 24.6926 41.4417 26.2484 40.5067C27.8042 39.5717 29.5323 38.9594 31.3297 38.7064C32.9541 38.3719 34.4447 37.5687 35.6174 36.396C36.7901 35.2233 37.5933 33.7327 37.9277 32.1084C38.365 28.8783 39.961 25.9172 42.4186 23.7762C44.8763 21.6352 48.0282 20.4601 51.2877 20.4696C52.0844 20.4684 52.8798 20.537 53.6646 20.6746H54.6481C56.131 20.6431 57.5809 20.2308 58.8584 19.4772C60.1358 18.7237 61.198 17.6542 61.9428 16.3715C63.058 14.0687 64.8073 12.1321 66.9852 10.7891C69.163 9.44607 71.6789 8.75254 74.2372 8.78996C76.4529 8.79914 78.6331 9.3477 80.5893 10.3882C81.6336 10.9016 82.7865 11.1547 83.9498 11.1259C86.1192 11.1933 88.2268 10.3974 89.8101 8.9129C91.0716 7.6053 92.5836 6.56528 94.2558 5.85494C95.9281 5.1446 97.7263 4.7785 99.5432 4.7785C101.36 4.7785 103.158 5.1446 104.831 5.85494C106.503 6.56528 108.015 7.6053 109.276 8.9129C110.86 10.3974 112.967 11.1933 115.137 11.1259C116.3 11.1547 117.453 10.9016 118.497 10.3882C120.453 9.34615 122.633 8.79749 124.849 8.78996C127.408 8.75254 129.923 9.44607 132.101 10.7891C134.279 12.1321 136.028 14.0687 137.144 16.3715C137.888 17.6542 138.951 18.7237 140.228 19.4772C141.506 20.2308 142.955 20.6431 144.438 20.6746H145.422C147.21 20.3598 149.042 20.4081 150.811 20.8167C152.579 21.2253 154.248 21.9857 155.716 23.0526C157.185 24.1196 158.423 25.4712 159.358 27.027C160.293 28.5828 160.906 30.3109 161.159 32.1084C161.493 33.7327 162.296 35.2233 163.469 36.396C164.642 37.5687 166.132 38.3719 167.757 38.7064C169.554 38.9594 171.282 39.5717 172.838 40.5067C174.394 41.4417 175.745 42.6804 176.812 44.1489C177.879 45.6174 178.64 47.2856 179.048 49.0542C179.457 50.8228 179.505 52.6555 179.191 54.4432C179.017 56.0584 179.311 57.6893 180.038 59.1423C180.764 60.5952 181.892 61.8091 183.289 62.6395C184.876 63.457 186.286 64.5809 187.438 65.9463C188.589 67.3117 189.458 68.8916 189.995 70.5947C190.532 72.2978 190.727 74.0905 190.568 75.8692C190.408 77.648 189.898 79.3775 189.067 80.9581C188.384 82.4709 188.16 84.1508 188.422 85.7898C188.684 87.4288 189.421 88.9549 190.542 90.1789C191.85 91.4404 192.89 92.9524 193.6 94.6246C194.311 96.2969 194.677 98.0951 194.677 99.912C194.677 101.729 194.311 103.527 193.6 105.199C192.89 106.872 191.85 108.384 190.542 109.645C189.417 110.866 188.676 112.393 188.414 114.033C188.151 115.673 188.379 117.354 189.067 118.866C189.922 120.471 190.445 122.231 190.604 124.043C190.763 125.854 190.555 127.679 189.993 129.408C189.43 131.138 188.525 132.736 187.331 134.107C186.137 135.478 184.678 136.595 183.043 137.389C181.647 138.22 180.518 139.434 179.792 140.887C179.065 142.34 178.771 143.971 178.945 145.586C179.259 147.373 179.211 149.206 178.802 150.975C178.394 152.743 177.633 154.412 176.567 155.88C175.5 157.349 174.148 158.587 172.592 159.522C171.036 160.457 169.308 161.07 167.511 161.323C165.886 161.657 164.396 162.46 163.223 163.633C162.051 164.806 161.247 166.296 160.913 167.921C160.476 171.151 158.88 174.112 156.422 176.253C153.964 178.394 150.812 179.569 147.553 179.559C146.756 179.561 145.961 179.492 145.176 179.354C143.561 179.186 141.932 179.482 140.48 180.208C139.028 180.934 137.814 182.06 136.98 183.453C135.864 185.755 134.115 187.692 131.937 189.035C129.76 190.378 127.244 191.071 124.685 191.034C122.47 191.025 120.289 190.476 118.333 189.436C117.289 188.922 116.136 188.669 114.973 188.698C112.803 188.631 110.696 189.427 109.112 190.911C107.875 192.246 106.38 193.315 104.718 194.055C103.056 194.794 101.26 195.189 99.4408 195.214ZM83.8678 187.96C86.282 187.917 88.6186 188.813 90.3839 190.46C91.558 191.684 92.9674 192.657 94.5273 193.322C96.0873 193.987 97.7655 194.33 99.4613 194.33C101.157 194.33 102.835 193.987 104.395 193.322C105.955 192.657 107.364 191.684 108.539 190.46C110.302 188.809 112.64 187.912 115.055 187.96C116.362 187.942 117.655 188.238 118.825 188.821C120.656 189.79 122.696 190.296 124.767 190.296C127.129 190.3 129.443 189.636 131.444 188.382C133.445 187.127 135.052 185.334 136.078 183.207C136.994 181.603 138.359 180.303 140.005 179.466C141.65 178.628 143.505 178.291 145.34 178.494C146.076 178.557 146.817 178.557 147.553 178.494C150.565 178.462 153.465 177.347 155.722 175.353C157.98 173.359 159.444 170.619 159.847 167.634C160.219 165.817 161.116 164.149 162.428 162.838C163.739 161.526 165.407 160.629 167.224 160.257C168.901 160.024 170.514 159.455 171.965 158.584C173.417 157.713 174.678 156.558 175.673 155.189C176.668 153.819 177.376 152.262 177.755 150.612C178.134 148.962 178.176 147.252 177.879 145.586C177.676 143.751 178.014 141.896 178.851 140.25C179.688 138.605 180.989 137.24 182.592 136.324C184.117 135.586 185.477 134.547 186.591 133.27C187.705 131.993 188.549 130.504 189.074 128.893C189.598 127.282 189.791 125.581 189.642 123.893C189.493 122.206 189.005 120.565 188.206 119.071C187.444 117.384 187.193 115.51 187.484 113.682C187.775 111.854 188.597 110.151 189.846 108.784C191.064 107.607 192.033 106.197 192.695 104.637C193.356 103.078 193.697 101.401 193.697 99.7071C193.697 98.013 193.356 96.3362 192.695 94.7767C192.033 93.2172 191.064 91.8069 189.846 90.6297C188.597 89.2633 187.775 87.5606 187.484 85.7323C187.193 83.904 187.444 82.0304 188.206 80.3434C189.005 78.849 189.493 77.2086 189.642 75.5208C189.791 73.8329 189.598 72.1324 189.074 70.5211C188.549 68.9099 187.705 67.4212 186.591 66.1443C185.477 64.8673 184.117 63.8286 182.592 63.0903C180.989 62.1743 179.688 60.8095 178.851 59.1638C178.014 57.5182 177.676 55.6637 177.879 53.8285C178.171 52.1624 178.124 50.4547 177.743 48.8069C177.361 47.1591 176.653 45.6048 175.659 44.2362C174.665 42.8677 173.406 41.7129 171.957 40.8404C170.508 39.9678 168.898 39.3954 167.224 39.1571C165.407 38.7853 163.739 37.888 162.428 36.5766C161.116 35.2652 160.219 33.5975 159.847 31.7805C159.444 28.7956 157.98 26.0555 155.722 24.0614C153.465 22.0673 150.565 20.9524 147.553 20.9204C146.817 20.8569 146.076 20.8569 145.34 20.9204H144.192C142.524 20.8933 140.892 20.4334 139.455 19.5857C138.018 18.7379 136.826 17.5315 135.996 16.0846C134.97 13.9577 133.364 12.1639 131.362 10.9097C129.361 9.65539 127.047 8.99166 124.685 8.99486C122.614 8.99484 120.574 9.50133 118.743 10.4702C117.573 11.0537 116.28 11.3488 114.973 11.3308C112.559 11.3747 110.222 10.4783 108.457 8.83094C107.282 7.60746 105.873 6.63397 104.313 5.96896C102.753 5.30395 101.075 4.96114 99.3793 4.96114C97.6835 4.96114 96.0053 5.30395 94.4454 5.96896C92.8855 6.63397 91.4761 7.60746 90.3019 8.83094C88.5366 10.4783 86.2 11.3747 83.7859 11.3308C82.4785 11.3488 81.1857 11.0537 80.0156 10.4702C78.1847 9.50133 76.1447 8.99484 74.0733 8.99486C71.7047 8.98392 69.3815 9.64401 67.3725 10.8987C65.3635 12.1534 63.7509 13.9514 62.7215 16.0846C61.8911 17.5315 60.6992 18.7379 59.2624 19.5857C57.8256 20.4334 56.1932 20.8933 54.5252 20.9204H53.3777C52.6414 20.8571 51.901 20.8571 51.1647 20.9204C48.1528 20.9524 45.253 22.0673 42.9955 24.0614C40.738 26.0555 39.2737 28.7956 38.8703 31.7805C38.4985 33.5975 37.6012 35.2652 36.2898 36.5766C34.9784 37.888 33.3106 38.7853 31.4937 39.1571C29.8167 39.39 28.2041 39.959 26.7522 40.8299C25.3004 41.7008 24.0393 42.8558 23.0444 44.2256C22.0495 45.5955 21.3413 47.1521 20.9623 48.8021C20.5833 50.4522 20.5412 52.1618 20.8385 53.8285C21.0418 55.6637 20.7039 57.5182 19.8665 59.1638C19.0292 60.8095 17.7288 62.1743 16.1257 63.0903C14.6006 63.8286 13.2403 64.8673 12.1265 66.1443C11.0127 67.4212 10.1684 68.9099 9.64404 70.5211C9.11972 72.1324 8.92626 73.8329 9.07527 75.5208C9.22428 77.2086 9.71269 78.849 10.5112 80.3434C11.2737 82.0304 11.5248 83.904 11.2335 85.7323C10.9421 87.5606 10.1211 89.2633 8.87195 90.6297C7.64847 91.8039 6.67498 93.2133 6.00997 94.7732C5.34495 96.3331 5.00215 98.0114 5.00215 99.7071C5.00215 101.403 5.34495 103.081 6.00997 104.641C6.67498 106.201 7.64847 107.61 8.87195 108.784C10.1211 110.151 10.9421 111.854 11.2335 113.682C11.5248 115.51 11.2737 117.384 10.5112 119.071C9.71851 120.566 9.23476 122.206 9.08874 123.893C8.94272 125.579 9.1374 127.278 9.66122 128.887C10.185 130.497 11.0273 131.985 12.1378 133.263C13.2484 134.54 14.6045 135.581 16.1257 136.324C17.7288 137.24 19.0292 138.605 19.8665 140.25C20.7039 141.896 21.0418 143.751 20.8385 145.586C20.5412 147.252 20.5833 148.962 20.9623 150.612C21.3413 152.262 22.0495 153.819 23.0444 155.189C24.0393 156.558 25.3004 157.713 26.7522 158.584C28.2041 159.455 29.8167 160.024 31.4937 160.257C33.3106 160.629 34.9784 161.526 36.2898 162.838C37.6012 164.149 38.4985 165.817 38.8703 167.634C39.2737 170.619 40.738 173.359 42.9955 175.353C45.253 177.347 48.1528 178.462 51.1647 178.494C51.901 178.557 52.6414 178.557 53.3777 178.494C55.2135 178.285 57.0701 178.621 58.7168 179.459C60.3634 180.296 61.7275 181.6 62.6395 183.207C63.666 185.334 65.2721 187.127 67.2732 188.382C69.2742 189.636 71.5887 190.3 73.9504 190.296C76.0218 190.296 78.0618 189.79 79.8927 188.821C81.1121 188.211 82.4643 187.916 83.8269 187.96H83.8678Z" fill="white"/>
<path d="M99.4408 191.075C98.1783 191.079 96.9283 190.826 95.7661 190.333C94.6039 189.84 93.5537 189.117 92.6788 188.206C91.5102 187.079 90.13 186.195 88.6177 185.604C87.1054 185.013 85.491 184.728 83.8678 184.764C82.032 184.739 80.2175 185.161 78.5813 185.993C77.2176 186.716 75.6985 187.096 74.1553 187.1C72.3927 187.105 70.6648 186.611 69.171 185.675C67.6772 184.74 66.4784 183.401 65.7131 181.813C64.6331 179.825 63.0419 178.162 61.1039 176.995C59.1659 175.828 56.9513 175.199 54.6891 175.174C54.1164 175.125 53.5406 175.125 52.9679 175.174C52.4225 175.221 51.8741 175.221 51.3286 175.174C49.0441 175.182 46.8361 174.352 45.122 172.841C43.4079 171.331 42.3064 169.245 42.0259 166.978C41.5626 164.475 40.351 162.171 38.551 160.371C36.7511 158.572 34.4475 157.36 31.9445 156.897C30.6935 156.723 29.4905 156.299 28.4074 155.65C27.3243 155 26.3834 154.139 25.6411 153.117C24.8987 152.096 24.3702 150.935 24.0872 149.704C23.8042 148.473 23.7725 147.198 23.9941 145.955C24.3269 143.431 23.8862 140.865 22.7301 138.597C21.574 136.328 19.757 134.464 17.519 133.25C16.3893 132.692 15.3837 131.911 14.5623 130.955C13.7408 129.999 13.1203 128.887 12.7379 127.686C12.3554 126.485 12.2188 125.22 12.3361 123.965C12.4535 122.71 12.8224 121.491 13.4209 120.382C14.5231 118.085 14.9016 115.507 14.5064 112.989C14.1113 110.472 12.961 108.134 11.2079 106.285C10.2981 105.409 9.57435 104.359 9.07998 103.197C8.58562 102.035 8.33081 100.785 8.33081 99.5227C8.33081 98.26 8.58562 97.0103 9.07998 95.8484C9.57435 94.6866 10.2981 93.6364 11.2079 92.7608C12.961 90.9115 14.1113 88.5735 14.5064 86.0561C14.9016 83.5387 14.5231 80.9607 13.4209 78.6632C12.8224 77.554 12.4535 76.3356 12.3361 75.0806C12.2188 73.8257 12.3554 72.56 12.7379 71.359C13.1203 70.1581 13.7408 69.0465 14.5623 68.0905C15.3837 67.1346 16.3893 66.3539 17.519 65.7951C19.757 64.5813 21.574 62.7171 22.7301 60.4488C23.8862 58.1805 24.3269 55.6149 23.9941 53.0908C23.7725 51.8475 23.8042 50.5723 24.0872 49.3416C24.3702 48.1108 24.8987 46.9498 25.6411 45.9282C26.3834 44.9065 27.3243 44.0452 28.4074 43.3958C29.4905 42.7464 30.6935 42.3222 31.9445 42.1488C34.4475 41.6855 36.7511 40.4739 38.551 38.674C40.351 36.874 41.5626 34.5704 42.0259 32.0674C42.3064 29.8002 43.4079 27.7143 45.122 26.204C46.8361 24.6938 49.0441 23.8639 51.3286 23.8711C51.8741 23.8247 52.4225 23.8247 52.9679 23.8711C53.5406 23.9208 54.1165 23.9208 54.6891 23.8711C56.9513 23.8463 59.1659 23.2179 61.1039 22.0507C63.0419 20.8836 64.6331 19.2201 65.7131 17.2321C66.4784 15.6444 67.6772 14.3056 69.171 13.3701C70.6648 12.4347 72.3927 11.9408 74.1553 11.9455C75.6985 11.9497 77.2176 12.3295 78.5813 13.052C80.2175 13.8849 82.032 14.3068 83.8678 14.2815C85.491 14.3179 87.1054 14.0325 88.6177 13.4416C90.13 12.8508 91.5102 11.9662 92.6788 10.8391C93.5544 9.92926 94.6046 9.20551 95.7665 8.71115C96.9284 8.21679 98.1781 7.96198 99.4408 7.96198C100.703 7.96198 101.953 8.21679 103.115 8.71115C104.277 9.20551 105.327 9.92926 106.203 10.8391C107.371 11.9662 108.752 12.8508 110.264 13.4416C111.776 14.0325 113.39 14.3179 115.014 14.2815C116.85 14.3068 118.664 13.8849 120.3 13.052C121.664 12.3295 123.183 11.9497 124.726 11.9455C126.489 11.9408 128.217 12.4347 129.711 13.3701C131.204 14.3056 132.403 15.6444 133.168 17.2321C134.248 19.2201 135.84 20.8836 137.778 22.0507C139.716 23.2179 141.93 23.8463 144.192 23.8711C144.765 23.9208 145.341 23.9208 145.914 23.8711C146.459 23.8247 147.007 23.8247 147.553 23.8711C149.837 23.8639 152.045 24.6938 153.76 26.204C155.474 27.7143 156.575 29.8002 156.856 32.0674C157.319 34.5704 158.531 36.874 160.331 38.674C162.13 40.4739 164.434 41.6855 166.937 42.1488C168.188 42.3222 169.391 42.7464 170.474 43.3958C171.557 44.0452 172.498 44.9065 173.24 45.9282C173.983 46.9498 174.511 48.1108 174.794 49.3416C175.077 50.5723 175.109 51.8475 174.887 53.0908C174.555 55.6149 174.995 58.1805 176.151 60.4488C177.308 62.7171 179.125 64.5813 181.363 65.7951C182.492 66.3539 183.498 67.1346 184.319 68.0905C185.141 69.0465 185.761 70.1581 186.144 71.359C186.526 72.56 186.663 73.8257 186.545 75.0806C186.428 76.3356 186.059 77.554 185.461 78.6632C184.358 80.9607 183.98 83.5387 184.375 86.0561C184.77 88.5735 185.921 90.9115 187.674 92.7608C188.583 93.6364 189.307 94.6866 189.802 95.8484C190.296 97.0103 190.551 98.26 190.551 99.5227C190.551 100.785 190.296 102.035 189.802 103.197C189.307 104.359 188.583 105.409 187.674 106.285C185.921 108.134 184.77 110.472 184.375 112.989C183.98 115.507 184.358 118.085 185.461 120.382C186.059 121.491 186.428 122.71 186.545 123.965C186.663 125.22 186.526 126.485 186.144 127.686C185.761 128.887 185.141 129.999 184.319 130.955C183.498 131.911 182.492 132.692 181.363 133.25C179.125 134.464 177.308 136.328 176.151 138.597C174.995 140.865 174.555 143.431 174.887 145.955C175.109 147.198 175.077 148.473 174.794 149.704C174.511 150.935 173.983 152.096 173.24 153.117C172.498 154.139 171.557 155 170.474 155.65C169.391 156.299 168.188 156.723 166.937 156.897C164.434 157.36 162.13 158.572 160.331 160.371C158.531 162.171 157.319 164.475 156.856 166.978C156.575 169.245 155.474 171.331 153.76 172.841C152.045 174.352 149.837 175.182 147.553 175.174C147.007 175.221 146.459 175.221 145.914 175.174C145.341 175.125 144.765 175.125 144.192 175.174C141.93 175.199 139.716 175.828 137.778 176.995C135.84 178.162 134.248 179.825 133.168 181.813C132.403 183.401 131.204 184.74 129.711 185.675C128.217 186.611 126.489 187.105 124.726 187.1C123.183 187.096 121.664 186.716 120.3 185.993C118.664 185.161 116.85 184.739 115.014 184.764C113.39 184.728 111.776 185.013 110.264 185.604C108.752 186.195 107.371 187.079 106.203 188.206C105.328 189.117 104.278 189.84 103.115 190.333C101.953 190.826 100.703 191.079 99.4408 191.075V191.075ZM83.8678 183.821C87.3926 183.763 90.7969 185.104 93.3345 187.551C94.127 188.384 95.0805 189.047 96.1372 189.501C97.194 189.954 98.3319 190.188 99.4818 190.188C100.632 190.188 101.77 189.954 102.826 189.501C103.883 189.047 104.837 188.384 105.629 187.551C108.167 185.104 111.571 183.763 115.096 183.821C117.076 183.807 119.03 184.271 120.792 185.174C121.799 185.714 122.905 186.044 124.043 186.146C125.181 186.248 126.327 186.12 127.414 185.767C128.501 185.415 129.506 184.847 130.368 184.097C131.23 183.348 131.932 182.431 132.431 181.403C133.591 179.277 135.295 177.496 137.369 176.243C139.442 174.99 141.811 174.31 144.233 174.273C144.861 174.217 145.491 174.217 146.119 174.273C146.623 174.317 147.13 174.317 147.635 174.273C149.688 174.28 151.673 173.54 153.219 172.19C154.766 170.84 155.767 168.972 156.036 166.937C156.537 164.241 157.842 161.761 159.781 159.822C161.72 157.883 164.2 156.578 166.896 156.077C168.032 155.924 169.125 155.542 170.109 154.954C171.093 154.367 171.948 153.587 172.622 152.66C173.296 151.733 173.775 150.679 174.031 149.562C174.286 148.445 174.313 147.287 174.109 146.16C173.751 143.441 174.225 140.678 175.468 138.235C176.712 135.791 178.667 133.782 181.076 132.472C182.103 131.973 183.02 131.271 183.77 130.409C184.519 129.547 185.088 128.542 185.44 127.455C185.792 126.368 185.921 125.222 185.819 124.084C185.717 122.946 185.386 121.84 184.846 120.833C183.67 118.357 183.271 115.583 183.703 112.876C184.135 110.17 185.376 107.657 187.264 105.67C188.097 104.878 188.761 103.924 189.214 102.867C189.667 101.81 189.901 100.673 189.901 99.5227C189.901 98.3729 189.667 97.235 189.214 96.1782C188.761 95.1215 188.097 94.1679 187.264 93.3755C185.376 91.3883 184.135 88.8758 183.703 86.169C183.271 83.4622 183.67 80.6882 184.846 78.2124C185.386 77.2054 185.717 76.0998 185.819 74.9618C185.921 73.8239 185.792 72.677 185.44 71.5901C185.088 70.5031 184.519 69.4985 183.77 68.6365C183.02 67.7745 182.103 67.0729 181.076 66.5737C178.667 65.2636 176.712 63.2543 175.468 60.8108C174.225 58.3673 173.751 55.6043 174.109 52.8859C174.313 51.7582 174.286 50.6008 174.031 49.4836C173.775 48.3665 173.296 47.3126 172.622 46.3858C171.948 45.4589 171.093 44.6783 170.109 44.0909C169.125 43.5036 168.032 43.1218 166.896 42.9684C164.2 42.4678 161.72 41.1621 159.781 39.2234C157.842 37.2847 156.537 34.804 156.036 32.1084C155.772 30.1079 154.8 28.2682 153.297 26.9225C151.793 25.5768 149.857 24.8141 147.84 24.7727C147.335 24.7289 146.828 24.7289 146.323 24.7727C145.71 24.8248 145.093 24.8248 144.479 24.7727C142.05 24.7422 139.672 24.0656 137.591 22.8124C135.51 21.5593 133.799 19.7747 132.636 17.642C131.947 16.2048 130.866 14.9918 129.517 14.1433C128.168 13.2948 126.607 12.8455 125.013 12.8471C123.587 12.8303 122.178 13.1683 120.915 13.8307C119.153 14.7336 117.199 15.1976 115.219 15.1831C111.694 15.2418 108.29 13.9007 105.752 11.4538C104.959 10.6205 104.006 9.95708 102.949 9.50374C101.892 9.05039 100.755 8.81662 99.6047 8.81662C98.4548 8.81662 97.3169 9.05039 96.2602 9.50374C95.2034 9.95708 94.2499 10.6205 93.4575 11.4538C90.9198 13.9007 87.5155 15.2418 83.9908 15.1831C82.0108 15.1976 80.0566 14.7336 78.2944 13.8307C77.2874 13.2909 76.1818 12.96 75.0438 12.858C73.9058 12.756 72.759 12.8849 71.672 13.237C70.5851 13.5891 69.5805 14.1572 68.7185 14.9071C67.8565 15.657 67.1549 16.5733 66.6557 17.601C65.492 19.7337 63.7817 21.5183 61.7003 22.7715C59.6189 24.0246 57.2414 24.7012 54.8121 24.7317C54.1984 24.7838 53.5815 24.7838 52.9679 24.7317C52.4634 24.688 51.9561 24.688 51.4516 24.7317C49.4342 24.7732 47.4983 25.5358 45.9948 26.8815C44.4912 28.2272 43.5194 30.0669 43.2553 32.0674C42.7547 34.7631 41.449 37.2437 39.5103 39.1824C37.5716 41.1211 35.0909 42.4269 32.3953 42.9275C31.2595 43.0808 30.1666 43.4626 29.1825 44.05C28.1984 44.6373 27.3435 45.418 26.6695 46.3448C25.9954 47.2717 25.5161 48.3255 25.2606 49.4427C25.005 50.5598 24.9785 51.7172 25.1825 52.845C25.5407 55.5633 25.0666 58.3263 23.8229 60.7698C22.5792 63.2133 20.6242 65.2226 18.2157 66.5327C17.188 67.0319 16.2717 67.7335 15.5218 68.5955C14.7719 69.4575 14.2038 70.4622 13.8517 71.5491C13.4996 72.636 13.3707 73.7829 13.4727 74.9209C13.5748 76.0588 13.9056 77.1645 14.4454 78.1714C15.6215 80.6472 16.02 83.4213 15.5884 86.128C15.1568 88.8348 13.9153 91.3473 12.0275 93.3345C11.1943 94.127 10.5308 95.0805 10.0775 96.1372C9.62413 97.194 9.39036 98.3319 9.39036 99.4817C9.39036 100.632 9.62413 101.769 10.0775 102.826C10.5308 103.883 11.1943 104.837 12.0275 105.629C13.9153 107.616 15.1568 110.129 15.5884 112.835C16.02 115.542 15.6215 118.316 14.4454 120.792C13.9056 121.799 13.5748 122.905 13.4727 124.043C13.3707 125.181 13.4996 126.327 13.8517 127.414C14.2038 128.501 14.7719 129.506 15.5218 130.368C16.2717 131.23 17.188 131.932 18.2157 132.431C20.6242 133.741 22.5792 135.75 23.8229 138.194C25.0666 140.637 25.5407 143.4 25.1825 146.119C24.9785 147.246 25.005 148.404 25.2606 149.521C25.5161 150.638 25.9954 151.692 26.6695 152.619C27.3435 153.546 28.1984 154.326 29.1825 154.914C30.1666 155.501 31.2595 155.883 32.3953 156.036C35.0909 156.537 37.5716 157.842 39.5103 159.781C41.449 161.72 42.7547 164.2 43.2553 166.896C43.5244 168.931 44.5257 170.799 46.072 172.149C47.6184 173.499 49.6037 174.239 51.6565 174.232C52.161 174.276 52.6683 174.276 53.1728 174.232C53.7864 174.179 54.4034 174.179 55.017 174.232C57.4393 174.269 59.8083 174.949 61.8818 176.202C63.9554 177.455 65.6593 179.236 66.8196 181.362C67.5081 182.8 68.5893 184.013 69.9382 184.861C71.2871 185.71 72.8486 186.159 74.4421 186.157C75.8686 186.174 77.2769 185.836 78.5403 185.174C80.1789 184.333 81.9856 183.87 83.8269 183.821H83.8678Z" fill="white"/>
<path d="M99.4408 186.977C98.7278 186.975 98.0226 186.829 97.3676 186.547C96.7126 186.265 96.1214 185.854 95.6295 185.338C94.0798 183.811 92.2417 182.608 90.2224 181.799C88.2031 180.99 86.043 180.591 83.8678 180.625C81.3593 180.603 78.8834 181.194 76.6551 182.346C76.0284 182.683 75.3401 182.89 74.6314 182.955C73.9228 183.019 73.2084 182.94 72.5311 182.722C71.8538 182.504 71.2275 182.151 70.6897 181.685C70.1519 181.219 69.7137 180.649 69.4014 180.01C67.9826 177.333 65.8661 175.089 63.2761 173.516C60.6862 171.943 57.7191 171.1 54.6891 171.076C53.8787 171.074 53.0697 171.143 52.2712 171.281C51.5693 171.416 50.8473 171.405 50.1496 171.251C49.4518 171.096 48.793 170.801 48.2135 170.382C47.634 169.964 47.1462 169.432 46.7798 168.818C46.4134 168.205 46.1763 167.523 46.083 166.814C45.4925 163.421 43.8686 160.293 41.4334 157.858C38.9981 155.423 35.8702 153.799 32.4772 153.208C31.7711 153.109 31.0923 152.869 30.4817 152.501C29.871 152.133 29.3411 151.645 28.9238 151.067C28.5065 150.489 28.2105 149.832 28.0535 149.137C27.8965 148.441 27.8818 147.721 28.0102 147.02C28.4946 143.614 27.9163 140.141 26.3541 137.075C24.7919 134.009 22.3219 131.5 19.2812 129.89C18.6383 129.581 18.0645 129.146 17.5943 128.61C17.1241 128.074 16.7673 127.448 16.5452 126.77C16.3232 126.092 16.2405 125.377 16.3022 124.666C16.3639 123.956 16.5687 123.265 16.9043 122.636C18.4164 119.549 18.9404 116.072 18.4051 112.677C17.8698 109.281 16.3011 106.134 13.9127 103.662C13.3995 103.169 12.9912 102.577 12.7123 101.922C12.4335 101.267 12.2897 100.562 12.2897 99.8506C12.2897 99.1387 12.4335 98.4343 12.7123 97.7793C12.9912 97.1244 13.3995 96.5326 13.9127 96.0393C16.3516 93.5558 17.9547 90.3731 18.4983 86.935C19.042 83.4969 18.499 79.9748 16.9453 76.86C16.6097 76.2308 16.4049 75.5402 16.3432 74.8297C16.2815 74.1193 16.3641 73.4037 16.5862 72.7261C16.8083 72.0484 17.1651 71.4227 17.6353 70.8865C18.1055 70.3504 18.6793 69.9149 19.3222 69.6063C22.3629 67.9961 24.8329 65.487 26.395 62.4213C27.9572 59.3556 28.5356 55.8826 28.0512 52.4761C27.9227 51.7748 27.9374 51.0548 28.0944 50.3593C28.2514 49.6638 28.5475 49.0073 28.9648 48.4292C29.3821 47.8511 29.912 47.3634 30.5227 46.9954C31.1333 46.6274 31.8121 46.3868 32.5182 46.2879C35.9112 45.6974 39.0391 44.0735 41.4743 41.6383C43.9096 39.203 45.5335 36.0751 46.124 32.6821C46.2173 31.9736 46.4544 31.2915 46.8208 30.6779C47.1871 30.0643 47.675 29.532 48.2545 29.1137C48.834 28.6954 49.4928 28.4 50.1906 28.2454C50.8883 28.0909 51.6103 28.0806 52.3122 28.2151C53.1107 28.3532 53.9197 28.4218 54.7301 28.42C57.7601 28.3959 60.7271 27.5528 63.3171 25.98C65.9071 24.4073 68.0235 22.1635 69.4424 19.4861C69.7547 18.8467 70.1929 18.277 70.7307 17.811C71.2685 17.345 71.8948 16.9924 72.5721 16.7743C73.2494 16.5562 73.9638 16.477 74.6724 16.5416C75.3811 16.6062 76.0694 16.8132 76.6961 17.1502C78.9244 18.3025 81.4003 18.8933 83.9088 18.8714C88.2984 18.9176 92.5274 17.2231 95.6705 14.1585C96.1638 13.6454 96.7556 13.2371 97.4105 12.9582C98.0654 12.6793 98.7699 12.5356 99.4817 12.5356C100.194 12.5356 100.898 12.6793 101.553 12.9582C102.208 13.2371 102.8 13.6454 103.293 14.1585C104.843 15.6852 106.681 16.8882 108.7 17.6973C110.719 18.5064 112.88 18.9055 115.055 18.8714C117.563 18.8933 120.039 18.3025 122.267 17.1502C122.897 16.8146 123.587 16.6098 124.298 16.5481C125.008 16.4864 125.724 16.569 126.401 16.7911C127.079 17.0131 127.705 17.37 128.241 17.8402C128.777 18.3104 129.212 18.8842 129.521 19.5271C130.94 22.2044 133.056 24.4483 135.646 26.021C138.236 27.5937 141.203 28.4368 144.233 28.461C145.044 28.463 145.853 28.3944 146.651 28.2561C147.353 28.1216 148.075 28.1319 148.773 28.2864C149.471 28.4409 150.13 28.7364 150.709 29.1547C151.288 29.573 151.776 30.1053 152.143 30.7189C152.509 31.3325 152.746 32.0145 152.839 32.7231C153.43 36.1161 155.054 39.244 157.489 41.6792C159.924 44.1145 163.052 45.7384 166.445 46.3289C167.151 46.4278 167.83 46.6684 168.441 47.0364C169.051 47.4044 169.581 47.8921 169.999 48.4702C170.416 49.0483 170.712 49.7048 170.869 50.4003C171.026 51.0958 171.041 51.8158 170.912 52.5171C170.428 55.9236 171.006 59.3966 172.568 62.4623C174.131 65.528 176.601 68.0371 179.641 69.6473C180.284 69.9559 180.858 70.3914 181.328 70.9275C181.798 71.4637 182.155 72.0894 182.377 72.767C182.599 73.4447 182.682 74.1603 182.62 74.8707C182.559 75.5812 182.354 76.2718 182.018 76.901C180.506 79.9877 179.982 83.4654 180.517 86.8607C181.053 90.2559 182.621 93.4036 185.01 95.8754C185.523 96.3687 185.931 96.9605 186.21 97.6154C186.489 98.2703 186.633 98.9748 186.633 99.6866C186.633 100.398 186.489 101.103 186.21 101.758C185.931 102.413 185.523 103.005 185.01 103.498C182.621 105.97 181.053 109.117 180.517 112.513C179.982 115.908 180.506 119.386 182.018 122.472C182.354 123.101 182.559 123.792 182.62 124.503C182.682 125.213 182.599 125.929 182.377 126.606C182.155 127.284 181.798 127.91 181.328 128.446C180.858 128.982 180.284 129.417 179.641 129.726C176.601 131.336 174.131 133.845 172.568 136.911C171.006 139.977 170.428 143.45 170.912 146.856C171.041 147.557 171.026 148.278 170.869 148.973C170.712 149.668 170.416 150.325 169.999 150.903C169.581 151.481 169.051 151.969 168.441 152.337C167.83 152.705 167.151 152.945 166.445 153.044C163.052 153.635 159.924 155.259 157.489 157.694C155.054 160.129 153.43 163.257 152.839 166.65C152.746 167.359 152.509 168.041 152.143 168.654C151.776 169.268 151.288 169.8 150.709 170.219C150.13 170.637 149.471 170.932 148.773 171.087C148.075 171.241 147.353 171.252 146.651 171.117C145.765 171.033 144.873 171.033 143.988 171.117C140.958 171.141 137.99 171.984 135.401 173.557C132.811 175.13 130.694 177.374 129.275 180.051C128.848 180.949 128.174 181.707 127.332 182.237C126.491 182.766 125.516 183.046 124.521 183.043C123.65 183.045 122.792 182.834 122.021 182.428C119.793 181.276 117.317 180.685 114.809 180.707C112.634 180.673 110.473 181.072 108.454 181.881C106.435 182.69 104.597 183.893 103.047 185.42C102.09 186.383 100.798 186.94 99.4408 186.977V186.977ZM83.8678 179.723C88.4635 179.711 92.8796 181.507 96.1622 184.723C96.5712 185.147 97.0615 185.484 97.6036 185.714C98.1458 185.945 98.7288 186.063 99.3178 186.063C99.9068 186.063 100.49 185.945 101.032 185.714C101.574 185.484 102.064 185.147 102.473 184.723C105.758 181.51 110.173 179.715 114.768 179.723C117.417 179.7 120.033 180.318 122.39 181.526C123.032 181.874 123.75 182.057 124.48 182.059C125.329 182.095 126.17 181.881 126.898 181.444C127.626 181.007 128.211 180.366 128.579 179.6C130.078 176.775 132.313 174.408 135.047 172.749C137.781 171.09 140.912 170.2 144.11 170.175C144.975 170.168 145.839 170.236 146.692 170.379H147.471C148.53 170.389 149.556 170.011 150.356 169.316C151.156 168.622 151.675 167.659 151.815 166.609C152.442 163.034 154.156 159.74 156.722 157.173C159.289 154.607 162.584 152.893 166.158 152.266C166.745 152.187 167.31 151.989 167.818 151.686C168.327 151.383 168.769 150.98 169.117 150.501C169.466 150.022 169.714 149.478 169.846 148.901C169.978 148.324 169.993 147.726 169.888 147.143C169.381 143.548 169.994 139.884 171.644 136.651C173.294 133.417 175.901 130.77 179.109 129.07C179.646 128.819 180.127 128.459 180.521 128.014C180.914 127.57 181.212 127.049 181.397 126.484C181.581 125.92 181.648 125.323 181.592 124.732C181.537 124.14 181.361 123.567 181.076 123.046C179.479 119.786 178.925 116.114 179.489 112.528C180.054 108.942 181.71 105.617 184.231 103.006C184.655 102.597 184.992 102.107 185.222 101.565C185.453 101.023 185.571 100.44 185.571 99.8506C185.571 99.2615 185.453 98.6785 185.222 98.1364C184.992 97.5942 184.655 97.104 184.231 96.695C181.71 94.0837 180.054 90.759 179.489 87.1733C178.925 83.5875 179.479 79.9149 181.076 76.6551C181.361 76.1344 181.537 75.5607 181.592 74.9693C181.648 74.378 181.581 73.7816 181.397 73.217C181.212 72.6524 180.914 72.1316 180.521 71.6868C180.127 71.242 179.646 70.8826 179.109 70.6308C175.893 68.9287 173.282 66.2753 171.632 63.0332C169.981 59.7911 169.372 56.1184 169.888 52.5171C169.993 51.9344 169.978 51.3364 169.846 50.7593C169.714 50.1822 169.466 49.6379 169.117 49.1592C168.769 48.6805 168.327 48.2774 167.818 47.9741C167.31 47.6708 166.745 47.4736 166.158 47.3944C162.584 46.767 159.289 45.0534 156.722 42.487C154.156 39.9206 152.442 36.6258 151.815 33.0509C151.736 32.4642 151.539 31.8995 151.235 31.391C150.932 30.8825 150.529 30.4406 150.05 30.0922C149.571 29.7437 149.027 29.4957 148.45 29.3633C147.873 29.2309 147.275 29.2167 146.692 29.3216C145.839 29.4651 144.975 29.5336 144.11 29.5265C140.912 29.5009 137.781 28.6114 135.047 26.9522C132.313 25.293 130.078 22.9258 128.579 20.1008C128.217 19.3275 127.635 18.678 126.906 18.2334C126.177 17.7888 125.334 17.5688 124.48 17.601C123.75 17.6035 123.032 17.7865 122.39 18.1337C120.033 19.3419 117.417 19.9606 114.768 19.9369C110.172 19.9494 105.756 18.1535 102.473 14.9372C102.064 14.5133 101.574 14.1762 101.032 13.9459C100.49 13.7156 99.9068 13.5969 99.3178 13.5969C98.7288 13.5969 98.1458 13.7156 97.6036 13.9459C97.0615 14.1762 96.5712 14.5133 96.1622 14.9372C92.8772 18.1498 88.4627 19.945 83.8678 19.9369C81.2186 19.9606 78.6031 19.3419 76.2453 18.1337C75.6032 17.7865 74.8852 17.6035 74.1553 17.601C73.3075 17.5705 72.4692 17.7866 71.7418 18.223C71.0144 18.6595 70.4292 19.2975 70.0571 20.0598C68.5579 22.8848 66.323 25.252 63.589 26.9112C60.8549 28.5704 57.7232 29.4599 54.5252 29.4856C53.6603 29.4922 52.7964 29.4237 51.9434 29.2807H51.1647C50.1055 29.2714 49.0793 29.6495 48.2793 30.3438C47.4793 31.0382 46.9606 32.0009 46.8207 33.0509C46.1932 36.6258 44.4797 39.9206 41.9133 42.487C39.3468 45.0534 36.0521 46.767 32.4772 47.3944C31.8904 47.4736 31.3258 47.6708 30.8172 47.9741C30.3087 48.2774 29.8669 48.6805 29.5184 49.1592C29.1699 49.6379 28.922 50.1822 28.7896 50.7593C28.6572 51.3364 28.643 51.9344 28.7479 52.5171C29.2635 56.1184 28.6545 59.7911 27.0041 63.0332C25.3537 66.2753 22.7424 68.9287 19.5271 70.6308C18.9932 70.8872 18.5168 71.249 18.1266 71.6944C17.7364 72.1399 17.4404 72.6598 17.2566 73.2227C17.0728 73.7857 17.0049 74.3801 17.057 74.97C17.1092 75.5599 17.2803 76.1331 17.56 76.6551C19.1518 79.9189 19.6989 83.594 19.1269 87.1799C18.5549 90.7659 16.8916 94.0884 14.3635 96.695C13.9396 97.104 13.6024 97.5942 13.3722 98.1364C13.1419 98.6785 13.0232 99.2615 13.0232 99.8506C13.0232 100.44 13.1419 101.023 13.3722 101.565C13.6024 102.107 13.9396 102.597 14.3635 103.006C16.8916 105.613 18.5549 108.935 19.1269 112.521C19.6989 116.107 19.1518 119.782 17.56 123.046C17.2803 123.568 17.1092 124.141 17.057 124.731C17.0049 125.321 17.0728 125.915 17.2566 126.478C17.4404 127.041 17.7364 127.561 18.1266 128.007C18.5168 128.452 18.9932 128.814 19.5271 129.07C22.7351 130.77 25.3414 133.417 26.9913 136.651C28.6412 139.884 29.2546 143.548 28.7479 147.143C28.643 147.726 28.6572 148.324 28.7896 148.901C28.922 149.478 29.1699 150.022 29.5184 150.501C29.8669 150.98 30.3087 151.383 30.8172 151.686C31.3258 151.989 31.8904 152.187 32.4772 152.266C36.0521 152.893 39.3468 154.607 41.9133 157.173C44.4797 159.74 46.1932 163.034 46.8207 166.609C46.9606 167.659 47.4793 168.622 48.2793 169.316C49.0793 170.011 50.1055 170.389 51.1647 170.379H51.9434C52.7964 170.236 53.6603 170.168 54.5252 170.175C57.7232 170.2 60.8549 171.09 63.589 172.749C66.323 174.408 68.5579 176.775 70.0571 179.6C70.3134 180.134 70.6752 180.611 71.1207 181.001C71.5662 181.391 72.0861 181.687 72.649 181.871C73.212 182.055 73.8063 182.123 74.3963 182.07C74.9862 182.018 75.5594 181.847 76.0814 181.567C78.4724 180.325 81.1327 179.692 83.8269 179.723H83.8678Z" fill="white"/>
<path d="M115.505 60.3623C115.308 60.3623 115.112 60.3951 114.915 60.3951C113.277 60.5261 111.672 60.6899 110.067 61.0502C109.805 61.1157 109.543 61.1812 109.281 61.2467C107.447 61.738 105.58 62.1966 103.909 63.1138C102.763 63.7362 101.747 64.5878 101.059 65.7015C100.601 66.4549 100.372 67.3065 100.339 68.1909C100.339 68.9443 100.339 69.9925 100.765 70.6476C100.765 70.7459 100.732 70.8442 100.699 70.9097C100.208 71.4993 99.7819 72.1872 99.3561 73.0388C99.2906 73.2026 99.2251 73.3664 99.1596 73.5629C99.1268 73.6284 99.1268 73.6939 99.0941 73.7594C99.0613 73.6284 98.9958 73.4974 98.963 73.3664C98.8975 73.1698 98.7993 73.0061 98.7337 72.8423C98.6355 72.613 98.4717 72.3837 98.4717 72.1216C98.4389 71.8268 98.57 71.532 98.6027 71.27C98.8648 69.3374 98.6355 67.4376 97.9804 65.6032C97.5545 64.424 96.7684 63.5396 95.7202 62.8845C94.672 62.2294 93.5256 61.8363 92.3464 61.476C92.0188 61.3122 91.6912 61.2467 91.3637 61.1484C91.1016 61.0829 90.9051 61.214 90.8723 61.5088C90.7413 62.8517 90.6103 64.162 90.512 65.505C90.4138 66.848 90.4138 68.1909 90.7741 69.5339C91.0361 70.5821 91.5602 71.4665 92.4774 72.0561C93.3945 72.6457 94.3772 72.9733 95.4582 73.0716C96.2443 73.1698 97.0632 73.1698 97.8493 73.0061C98.0131 73.3991 98.1441 73.7594 98.2097 74.1853C98.2752 74.5128 98.3079 74.8404 98.3407 75.1352C98.4717 76.2161 98.1441 76.642 98.1114 77.6901C98.1114 78.0505 98.2424 78.3125 98.5045 78.4435C98.7337 78.5418 99.0286 78.509 99.2906 78.2797C99.6509 77.9849 99.7819 77.5264 99.8147 77.0678C99.8474 76.6092 99.8474 76.773 99.8802 76.3144C100.011 75.1352 100.306 73.9887 100.83 72.9405C101.092 72.3837 101.452 71.8924 101.878 71.4338C102.271 70.9752 102.697 70.5494 103.09 70.058C103.549 69.5012 104.138 69.0098 104.663 68.5185C105.711 67.5358 106.824 66.5859 107.971 65.6687C109.085 64.7843 110.264 63.9654 111.476 63.2121C109.903 64.6533 108.135 66.1928 106.431 67.8634C104.892 69.3374 102.337 72.613 101.846 73.2353C101.813 73.2681 101.846 73.3336 101.878 73.3336C101.977 73.3664 102.108 73.3991 102.206 73.3991C102.795 73.4646 103.32 73.4646 103.942 73.4646C104.695 73.4646 105.449 73.4646 106.202 73.3991C106.202 73.3991 106.202 73.3991 106.235 73.3991C108.528 73.2353 110.46 72.3509 111.967 70.5821C113.179 69.1409 114.096 67.5686 114.751 65.898C115.374 64.293 115.767 62.5897 116.029 60.8209C116.029 60.5916 115.832 60.3623 115.505 60.3623Z" fill="white"/>
<path d="M111.41 81.195C111.443 80.9985 111.476 80.7692 111.509 80.5727C111.836 78.0505 111.476 75.9213 110.395 74.1198C109.838 74.4146 109.216 74.6439 108.56 74.8404C109.543 76.3144 109.871 78.116 109.609 80.3434C109.576 80.6382 109.51 80.9657 109.445 81.2933C109.412 81.4571 109.379 81.6536 109.347 81.8501L109.183 82.7673L110.1 82.9311C110.133 82.9311 110.198 82.9638 110.231 82.9638C110.362 82.9966 110.493 83.0293 110.657 83.0293C111.377 83.1276 111.476 83.2914 111.476 83.8482C111.476 85.2895 111.181 86.5997 110.559 87.7134C110.362 88.1065 110.035 88.4668 108.986 88.4996L108.233 88.5323L108.069 89.253C108.036 89.384 108.004 89.4822 108.004 89.6133C107.971 89.8426 107.905 90.0391 107.84 90.2356C106.759 93.7077 103.189 98.8832 98.963 99.0142C98.832 99.0142 98.701 99.0142 98.6027 99.0142H98.5372C98.4062 99.0142 98.3079 99.0142 98.1769 99.0142C93.9514 98.8832 90.381 93.7077 89.3001 90.2356C89.2346 90.0391 89.2018 89.8426 89.1363 89.6133C89.1035 89.4822 89.0708 89.384 89.0708 89.253L88.907 88.5323L88.1536 88.4996C87.1054 88.4668 86.7779 88.1065 86.5813 87.7134C85.959 86.567 85.6642 85.2567 85.6642 83.8482C85.6642 83.2914 85.7297 83.1276 86.4831 83.0293C86.6468 82.9966 86.7779 82.9966 86.9089 82.9638C86.9416 82.9638 87.0072 82.9311 87.0399 82.9311L87.9571 82.7673L87.7933 81.8501C87.7605 81.6208 87.7605 81.4571 87.7278 81.2605C87.6623 80.933 87.6295 80.6382 87.564 80.3106C87.2692 77.9522 87.6623 76.0524 88.8087 74.5128C89.3328 73.825 89.8897 73.2026 90.512 72.6785C90.0862 72.2199 89.7259 71.6631 89.4638 71.0407C88.6777 71.7286 87.9571 72.482 87.302 73.3664C85.828 75.3317 85.3039 77.6901 85.6969 80.5727C85.7297 80.7692 85.7624 80.9985 85.7952 81.195C84.485 81.5226 83.7971 82.407 83.7971 83.8482C83.7971 85.6171 84.1902 87.2221 84.9435 88.6306C85.4349 89.5805 86.2538 90.1374 87.4002 90.3339C87.433 90.4977 87.4657 90.6287 87.5313 90.7925C88.2519 93.0854 89.6604 95.5093 91.3637 97.3436C93.4601 99.6038 95.8185 100.849 98.1769 100.914C98.3407 100.914 98.4717 100.914 98.6355 100.914C98.701 100.914 98.7665 100.914 98.8648 100.914C98.963 100.914 99.0285 100.914 99.0941 100.914C101.452 100.849 103.811 99.6038 105.907 97.3436C107.578 95.5093 109.019 93.0854 109.74 90.7925C109.772 90.6287 109.838 90.4977 109.871 90.3339C110.984 90.1374 111.803 89.5478 112.327 88.6306C113.081 87.2221 113.474 85.6171 113.474 83.8482C113.408 82.407 112.72 81.5226 111.41 81.195Z" fill="white"/>
<path d="M96.0805 95.018C97.8821 94.1008 99.6509 94.1008 101.321 95.0507C101.42 95.1162 101.551 95.149 101.682 95.149C101.911 95.149 102.108 95.0507 102.206 94.8542C102.304 94.6904 102.337 94.5266 102.271 94.3956C102.239 94.2318 102.108 94.0681 101.911 93.9698C100.863 93.3474 99.7819 93.0854 99.1923 93.0854C97.7183 93.0854 96.6374 93.3474 95.4909 93.937C95.2616 94.0681 95.0979 94.1991 95.0323 94.3956C94.9996 94.5266 94.9996 94.6904 95.0979 94.8542C95.3271 95.149 95.6875 95.2145 96.0805 95.018Z" fill="white"/>
<path d="M100.503 89.3185C100.208 89.1547 99.8802 89.2202 99.6181 89.515C99.0941 90.2029 98.3079 90.2029 97.7838 89.5477C97.5218 89.2202 97.1942 89.1547 96.8994 89.3512C96.6046 89.5477 96.5391 89.9408 96.7684 90.2684C97.227 90.9562 97.8493 91.2838 98.6355 91.3166C99.5199 91.3166 100.175 90.9562 100.634 90.2029C100.863 89.8753 100.765 89.515 100.503 89.3185Z" fill="white"/>
<path d="M95.884 82.3742C95.5892 82.3087 95.2944 82.2759 94.9996 82.2104C94.1152 82.0466 93.198 81.8501 92.2809 81.8501C92.0516 81.8501 91.855 81.8501 91.6257 81.8829C91.1672 81.9156 90.7741 82.0794 90.3155 82.3742C89.9879 82.5707 89.6931 82.8328 89.6604 83.1603C89.6604 83.3241 89.7259 83.4551 89.8569 83.5534C89.9879 83.6517 90.1517 83.6844 90.3155 83.6189C91.3309 83.2914 92.4446 83.1931 93.4928 83.3569C93.7876 83.3896 94.1152 83.4879 94.41 83.5862C94.8686 83.7499 95.3599 83.881 95.884 83.881C96.0478 83.881 96.1788 83.881 96.3426 83.8482C96.6701 83.7827 96.8994 83.6189 96.9649 83.3896C96.9977 83.2586 97.0304 83.0293 96.7684 82.7673C96.5719 82.5052 96.2116 82.4069 95.884 82.3742Z" fill="white"/>
<path d="M95.8185 86.1084C95.9495 86.0757 96.1133 86.0429 96.2771 86.0429C96.4736 86.0429 96.6046 85.8791 96.6374 85.6826C96.6374 85.4861 96.5391 85.3223 96.3426 85.2895C95.9495 85.1912 95.4909 85.1585 94.9668 85.1585C94.5082 85.1585 94.0824 85.1912 93.6566 85.224C93.4928 85.224 93.329 85.2568 93.1653 85.2568C92.1498 85.3223 91.2654 85.1257 90.4465 84.6672L90.381 84.6344H90.2827C90.1845 84.6344 90.0862 84.6999 90.0207 84.7654C89.9224 84.8964 89.9552 85.093 90.0862 85.1913C90.1517 85.2568 90.25 85.3223 90.3155 85.4205C90.4793 85.5516 90.6103 85.7153 90.8068 85.8464C90.8396 85.8791 90.8724 85.8791 90.9051 85.9119C91.1344 86.0429 91.3637 86.1739 91.6585 86.2722C92.1498 86.4687 92.6739 86.567 93.2308 86.5997C93.4273 86.5997 93.6238 86.6325 93.8204 86.6325C94.2462 86.6325 94.5738 86.5998 94.9013 86.4687C95.0651 86.4032 95.1961 86.3377 95.3599 86.2722C95.4909 86.2067 95.6547 86.1412 95.8185 86.1084Z" fill="white"/>
<path d="M107.938 83.1603C107.938 82.8328 107.611 82.5707 107.283 82.3742C106.824 82.0466 106.431 81.9156 105.973 81.8829C105.776 81.8501 105.547 81.8501 105.318 81.8501C104.401 81.8501 103.483 82.0466 102.599 82.2104C102.304 82.2759 102.009 82.3414 101.747 82.3742C101.42 82.4397 101.059 82.538 100.83 82.7673C100.568 83.0293 100.601 83.2914 100.634 83.3896C100.699 83.6189 100.928 83.7827 101.256 83.8482C101.387 83.881 101.551 83.881 101.715 83.881C102.239 83.881 102.697 83.7172 103.189 83.5862C103.483 83.4879 103.811 83.3896 104.106 83.3569C105.154 83.1931 106.268 83.2914 107.283 83.6189C107.349 83.6517 107.414 83.6517 107.48 83.6517C107.578 83.6517 107.676 83.6189 107.742 83.5534C107.873 83.4551 107.938 83.2914 107.938 83.1603Z" fill="white"/>
<path d="M103.811 86.6325C104.007 86.6325 104.204 86.6325 104.401 86.5997C104.99 86.567 105.481 86.4359 105.973 86.2721C106.268 86.1739 106.497 86.0429 106.726 85.9118C106.759 85.8791 106.792 85.8791 106.824 85.8463C107.021 85.7153 107.152 85.5843 107.316 85.4205C107.381 85.355 107.447 85.2895 107.545 85.224C107.676 85.1257 107.676 84.9292 107.611 84.7981C107.545 84.6999 107.447 84.6671 107.316 84.6671H107.25L107.185 84.6999C106.399 85.1585 105.481 85.3222 104.466 85.2895C104.302 85.2895 104.138 85.2567 103.975 85.2567C103.549 85.224 103.09 85.1912 102.664 85.1912C102.14 85.1912 101.682 85.224 101.289 85.3222C101.092 85.355 100.994 85.5188 100.994 85.7153C100.994 85.9118 101.158 86.0429 101.354 86.0756C101.518 86.0756 101.682 86.1084 101.813 86.1411C101.977 86.1739 102.108 86.2394 102.304 86.3377C102.435 86.4032 102.599 86.4687 102.73 86.5342C103.058 86.567 103.385 86.6325 103.811 86.6325Z" fill="white"/>
<path d="M36.1771 125.18C36.7449 125.717 36.776 126.511 36.5116 127.202C36.0252 128.471 34.6677 130.14 33.1776 130.123C32.9207 130.121 32.5915 129.807 32.4339 129.512C31.1937 131.423 30.2466 133.56 29.5166 135.687C29.3293 136.233 28.2592 135.367 28.4227 134.886C29.5355 131.612 30.6476 128.337 31.7604 125.064C31.9456 124.518 33.0179 125.383 32.8541 125.865C32.7087 126.293 32.5633 126.721 32.4179 127.149C32.8886 126.541 33.406 125.974 33.9871 125.48C34.6617 124.907 35.415 124.459 36.1773 125.18L36.1771 125.18ZM35.3638 126.531C35.4232 126.394 35.4455 126.231 35.4717 126.076C35.4216 126.108 35.373 126.141 35.327 126.178C35.2038 126.266 35.0851 126.365 34.9696 126.463C34.4628 126.894 34.0112 127.387 33.594 127.904C33.3121 128.253 33.044 128.616 32.7864 128.987C33.9113 128.859 34.9627 127.46 35.3637 126.531L35.3638 126.531ZM42.0806 126.426C42.5556 126.24 42.9916 127.097 42.45 127.309C41.6729 127.613 40.9339 128.019 40.2728 128.529C40.363 128.826 40.3941 129.14 40.3482 129.462C40.2023 130.488 39.1755 131.816 38.1054 130.925C36.9534 129.965 37.7708 128.779 38.9468 127.825C38.6531 127.456 38.2897 127.154 38.0692 126.719C37.6889 125.97 37.8375 124.782 38.9061 124.86C39.227 124.884 39.5442 125.15 39.6771 125.434C39.7703 125.633 39.8044 126.01 39.477 125.987C38.7908 125.936 38.994 126.713 39.2535 127.025C39.3522 127.143 39.4567 127.255 39.5596 127.368C40.6116 126.867 41.629 126.602 42.0807 126.426L42.0806 126.426ZM46.3775 126.635C46.7966 126.28 47.4832 126.926 47.088 127.262C46.4009 127.844 45.6843 128.395 44.9376 128.899C44.3362 129.304 43.6524 129.801 42.9273 129.947C42.1007 130.114 41.3134 129.344 41.2929 128.525C41.2695 127.586 41.9766 126.515 42.4333 125.728C42.7396 125.2 43.7721 126.107 43.5272 126.529C43.1656 127.152 42.8492 127.766 42.5961 128.441C42.5608 128.531 42.528 128.623 42.4962 128.715C43.3551 128.562 45.389 127.472 46.3774 126.635L46.3775 126.635ZM44.5684 124.419C44.4027 124.962 43.3256 124.106 43.4747 123.618C43.7518 122.709 44.117 121.842 44.5735 121.009C44.8649 120.476 45.9033 121.379 45.6672 121.81C45.2107 122.643 44.8456 123.51 44.5684 124.419ZM53.2897 126.572C53.7531 126.368 54.2501 127.072 53.7103 127.309L49.9217 128.974C48.9414 129.405 47.7024 130.121 46.6633 129.47C44.7549 128.273 46.7292 124.562 48.7805 125.771C49.0187 125.911 49.3852 126.221 49.354 126.542C49.3254 126.837 49.0325 126.878 48.8014 126.742C47.9984 126.269 47.3709 127.423 47.1583 128.014C46.9654 128.551 47.1531 128.602 47.2307 128.595C48.2259 128.506 51.7719 127.239 53.2899 126.572L53.2897 126.572ZM56.2126 126.471C56.3265 127.563 56.0313 128.654 55.3489 129.52C54.7127 130.328 53.7284 130.693 52.9541 129.834C51.5107 128.232 53.9028 125.898 55.2545 125.222C55.6681 125.015 56.4573 125.895 56.1528 126.242C56.1834 126.315 56.2045 126.392 56.2126 126.471L56.2126 126.471ZM54.7708 127.881C54.9065 127.592 54.9974 127.294 55.0511 126.99C54.8439 127.171 54.6514 127.369 54.4761 127.587C54.2628 127.852 54.0811 128.137 53.9349 128.444C53.8682 128.584 53.8027 128.727 53.7545 128.875C53.7421 128.913 53.7272 129.032 53.7091 129.136C53.8727 129.001 54.0249 128.924 54.1769 128.761C54.4198 128.501 54.6196 128.203 54.7708 127.881H54.7708ZM62.799 126.659C63.1596 126.27 63.8059 126.857 63.4389 127.254C62.4732 128.296 61.0907 129.2 59.7287 129.617C59.0827 129.815 58.4516 129.93 57.9712 129.359C57.4726 128.766 57.4084 128.046 57.5598 127.31C57.7638 126.318 58.1677 125.343 58.4949 124.386C58.8388 123.38 59.1939 122.377 59.5599 121.379C60.3203 119.306 61.1303 117.252 61.9841 115.215C62.2122 114.671 63.2727 115.552 63.0778 116.017C62.145 118.242 61.2649 120.488 60.4438 122.757C60.0403 123.872 59.6504 124.992 59.2746 126.117C59.0902 126.668 58.5122 127.836 58.5861 128.614C60.1435 128.391 62.2139 127.291 62.799 126.659L62.799 126.659ZM65.6551 126.471C65.7689 127.563 65.4738 128.654 64.7913 129.52C64.1551 130.328 63.1708 130.693 62.3965 129.834C60.9531 128.232 63.3452 125.898 64.6969 125.222C65.1105 125.015 65.8997 125.895 65.5952 126.242C65.6258 126.315 65.6469 126.392 65.655 126.471L65.6551 126.471ZM64.2132 127.881C64.3489 127.592 64.4398 127.294 64.4935 126.99C64.2863 127.171 64.0938 127.369 63.9185 127.587C63.7052 127.852 63.5236 128.137 63.3773 128.444C63.3106 128.584 63.2451 128.727 63.1969 128.875C63.1845 128.913 63.1696 129.032 63.1515 129.136C63.3151 129.001 63.4674 128.924 63.6193 128.761C63.8623 128.501 64.062 128.203 64.2132 127.881H64.2132ZM74.657 126.359C75.1192 126.153 75.7288 127.09 75.1893 127.33C73.4678 128.096 71.8693 129.124 70.5012 130.41C69.5435 133.124 68.4501 135.788 67.2202 138.392C66.9581 138.947 66.235 138.114 66.1314 137.839C65.249 135.495 66.5189 133.006 67.9438 131.158C68.4024 130.563 68.9075 130.01 69.4484 129.495C69.6057 129.047 69.7587 128.598 69.9084 128.148C68.8675 128.851 67.9747 129.823 66.7844 130.288C66.3367 130.464 65.7457 129.75 65.837 129.341C66.1184 128.08 66.8054 126.775 67.8607 125.988C68.7277 125.343 69.858 125.531 70.4371 126.395C70.4863 126.38 70.5359 126.366 70.5861 126.353C71.0165 126.242 71.6715 126.855 71.5336 127.3C71.4649 127.522 71.3921 127.742 71.3216 127.963C72.5372 127.275 73.584 126.836 74.6568 126.359L74.657 126.359ZM67.8675 128.001C68.4444 127.539 69.0104 127.062 69.6561 126.72C69.6272 126.713 69.5913 126.704 69.5449 126.692C69.4637 126.706 69.3824 126.719 69.301 126.733C69.0648 126.789 68.8613 126.951 68.679 127.104C68.3929 127.344 68.1404 127.634 67.9164 127.932C67.8993 127.954 67.8842 127.978 67.8675 128.001L67.8675 128.001ZM67.2673 135.065C67.413 134.729 67.5551 134.391 67.6963 134.052C67.5298 134.382 67.384 134.721 67.2673 135.065ZM77.5134 126.471C77.6272 127.563 77.3321 128.654 76.6496 129.52C76.0134 130.328 75.0291 130.693 74.2548 129.834C72.8115 128.232 75.2035 125.898 76.5552 125.222C76.9688 125.015 77.758 125.895 77.4536 126.242C77.4841 126.315 77.5052 126.392 77.5133 126.471L77.5134 126.471ZM76.0715 127.881C76.2072 127.592 76.2981 127.294 76.3518 126.99C76.1446 127.171 75.9521 127.369 75.7768 127.587C75.5635 127.852 75.3819 128.137 75.2356 128.444C75.1689 128.584 75.1035 128.727 75.0552 128.875C75.0428 128.913 75.0279 129.032 75.0098 129.136C75.1734 129.001 75.3257 128.924 75.4777 128.761C75.7206 128.501 75.9203 128.203 76.0715 127.881H76.0715ZM83.1334 126.426C83.6084 126.24 84.0444 127.097 83.5028 127.309C82.7257 127.613 81.9867 128.019 81.3256 128.529C81.4158 128.826 81.4469 129.14 81.4011 129.462C81.2552 130.488 80.2283 131.816 79.1583 130.925C78.0062 129.965 78.8236 128.779 79.9996 127.825C79.7059 127.456 79.3425 127.154 79.122 126.719C78.7417 125.97 78.8903 124.782 79.9589 124.86C80.2798 124.884 80.597 125.15 80.7299 125.434C80.8232 125.633 80.8573 126.01 80.5298 125.987C79.8436 125.936 80.0469 126.713 80.3063 127.025C80.405 127.143 80.5095 127.255 80.6124 127.368C81.6644 126.867 82.6818 126.602 83.1335 126.426L83.1334 126.426ZM91.0328 126.471C91.1466 127.563 90.8515 128.654 90.169 129.52C89.5328 130.328 88.5485 130.693 87.7742 129.834C86.3308 128.232 88.7229 125.898 90.0746 125.222C90.4882 125.015 91.2774 125.895 90.973 126.242C91.0035 126.315 91.0246 126.392 91.0327 126.471L91.0328 126.471ZM89.5909 127.881C89.7266 127.592 89.8175 127.294 89.8712 126.99C89.664 127.171 89.4715 127.369 89.2962 127.587C89.0829 127.852 88.9013 128.137 88.755 128.444C88.6883 128.584 88.6228 128.727 88.5746 128.875C88.5622 128.913 88.5473 129.032 88.5292 129.136C88.6928 129.001 88.8451 128.924 88.9971 128.761C89.24 128.501 89.4397 128.203 89.5909 127.881H89.5909ZM101.238 126.517C101.694 126.302 102.19 127.04 101.653 127.293C100.555 127.811 99.5231 128.449 98.493 129.088C97.8541 129.485 97.1429 130.05 96.3969 130.224C95.6645 130.395 94.9764 129.692 95.0886 128.967C95.1537 128.547 95.3188 128.126 95.5301 127.714C94.3239 128.381 93.2519 129.266 92.3508 130.346C91.9961 130.771 91.2161 129.833 91.3126 129.454C91.589 128.371 92.1048 127.333 92.6516 126.362C92.9499 125.832 93.9855 126.736 93.7454 127.163C93.7308 127.189 93.7167 127.215 93.7022 127.241C94.6523 126.589 95.6984 126.078 96.8109 125.729C97.2786 125.583 97.97 126.333 97.7028 126.768C97.3324 127.37 97.0158 127.979 96.7099 128.597C98.1819 127.859 99.7878 127.2 101.238 126.517L101.238 126.517ZM111.435 126.659C111.796 126.27 112.442 126.857 112.075 127.254C111.109 128.296 109.727 129.2 108.365 129.617C107.719 129.815 107.088 129.93 106.607 129.359C106.109 128.766 106.044 128.046 106.196 127.31C106.4 126.318 106.804 125.343 107.131 124.386C107.475 123.38 107.83 122.377 108.196 121.379C108.956 119.306 109.766 117.252 110.62 115.215C110.848 114.671 111.909 115.552 111.714 116.017C110.781 118.242 109.901 120.488 109.08 122.757C108.676 123.872 108.286 124.992 107.911 126.117C107.726 126.668 107.148 127.836 107.222 128.614C108.779 128.391 110.85 127.291 111.435 126.659L111.435 126.659ZM115.658 126.635C116.077 126.28 116.763 126.926 116.368 127.262C115.681 127.844 114.964 128.395 114.218 128.899C113.616 129.304 112.932 129.801 112.207 129.947C111.381 130.114 110.593 129.344 110.573 128.525C110.55 127.586 111.257 126.515 111.713 125.728C112.02 125.2 113.052 126.107 112.807 126.529C112.446 127.152 112.129 127.766 111.876 128.441C111.841 128.531 111.808 128.623 111.776 128.715C112.635 128.562 114.669 127.472 115.657 126.635L115.658 126.635ZM113.848 124.419C113.683 124.962 112.606 124.106 112.755 123.618C113.032 122.709 113.397 121.842 113.853 121.009C114.145 120.476 115.183 121.379 114.947 121.81C114.491 122.643 114.126 123.51 113.848 124.419ZM124.571 126.517C125.026 126.302 125.523 127.04 124.985 127.293C123.887 127.811 122.856 128.449 121.826 129.088C121.187 129.485 120.475 130.05 119.729 130.224C118.997 130.395 118.309 129.692 118.421 128.967C118.486 128.547 118.651 128.126 118.863 127.714C117.656 128.381 116.584 129.266 115.683 130.346C115.329 130.771 114.549 129.833 114.645 129.454C114.922 128.371 115.437 127.333 115.984 126.362C116.282 125.832 117.318 126.736 117.078 127.163C117.063 127.189 117.049 127.215 117.035 127.241C117.985 126.589 119.031 126.078 120.143 125.729C120.611 125.583 121.303 126.333 121.035 126.768C120.665 127.37 120.348 127.979 120.042 128.597C121.515 127.859 123.12 127.2 124.571 126.517L124.571 126.517ZM130.453 126.601C130.896 126.258 131.591 127.005 131.183 127.272C129.507 128.365 127.75 129.621 125.848 130.297C125.148 130.546 124.43 130.594 123.935 129.934C123.168 128.91 124.161 127.407 124.856 126.644C125.485 125.953 126.6 125.181 127.435 126.052C128.634 127.305 125.813 128.396 125.05 128.761C125.048 128.762 125.046 128.763 125.044 128.764C124.977 128.918 124.921 129.077 124.878 129.24C126.136 129.075 129.2 127.57 130.453 126.601L130.453 126.601ZM139.767 126.472C139.907 126.706 139.864 126.996 139.567 127.025C139.343 127.046 139.13 126.881 138.972 126.697C138.689 126.697 138.07 127.164 137.914 127.283C137.605 127.52 137.32 127.789 137.054 128.074C136.467 128.703 135.974 129.416 135.613 130.198C135.361 130.745 134.346 129.857 134.52 129.396C134.99 128.15 135.497 126.918 135.951 125.665C136.116 125.212 136.881 125.736 137.036 126.2C138.002 125.463 139.035 125.242 139.767 126.472L139.767 126.472ZM143.757 126.471C143.871 127.563 143.576 128.654 142.893 129.52C142.257 130.328 141.273 130.693 140.499 129.834C139.055 128.232 141.447 125.898 142.799 125.222C143.213 125.015 144.002 125.895 143.697 126.242C143.728 126.315 143.749 126.392 143.757 126.471L143.757 126.471ZM142.315 127.881C142.451 127.592 142.542 127.294 142.596 126.99C142.388 127.171 142.196 127.369 142.021 127.587C141.807 127.852 141.626 128.137 141.479 128.444C141.413 128.584 141.347 128.727 141.299 128.875C141.287 128.913 141.272 129.032 141.254 129.136C141.417 129.001 141.569 128.924 141.721 128.761C141.964 128.501 142.164 128.203 142.315 127.881H142.315ZM149.377 126.426C149.852 126.24 150.288 127.097 149.747 127.309C148.97 127.613 148.23 128.019 147.569 128.529C147.66 128.826 147.691 129.14 147.645 129.462C147.499 130.488 146.472 131.816 145.402 130.925C144.25 129.965 145.067 128.779 146.243 127.825C145.95 127.456 145.586 127.154 145.366 126.719C144.985 125.97 145.134 124.782 146.203 124.86C146.524 124.884 146.841 125.15 146.974 125.434C147.067 125.633 147.101 126.01 146.774 125.987C146.087 125.936 146.291 126.713 146.55 127.025C146.649 127.143 146.753 127.255 146.856 127.368C147.908 126.867 148.926 126.602 149.377 126.426L149.377 126.426ZM157.778 126.548C158.182 126.182 158.916 126.901 158.527 127.254C157.562 128.13 156.563 128.997 155.44 129.667C154.922 129.977 154.301 130.313 153.675 130.24C153.044 130.166 152.512 129.651 152.331 129.055C152.21 128.657 152.268 128.293 152.378 127.936C151.248 128.685 150.311 129.784 149.025 130.289C148.578 130.464 147.987 129.75 148.078 129.341C148.359 128.08 149.046 126.775 150.102 125.989C150.938 125.366 152.02 125.518 152.616 126.303C152.731 126.261 152.849 126.224 152.971 126.193C153.115 126.156 153.286 126.219 153.444 126.331C153.692 126.495 153.921 126.764 153.934 126.986C153.95 127.06 153.947 127.126 153.92 127.179C153.877 127.513 153.766 127.826 153.652 128.146C153.533 128.476 153.48 128.784 153.418 129.108C153.434 129.106 153.45 129.102 153.467 129.1C154.738 128.948 156.982 127.271 157.778 126.548L157.778 126.548ZM150.134 127.965C150.677 127.518 151.209 127.053 151.804 126.696C151.798 126.694 151.793 126.693 151.786 126.692C151.705 126.705 151.623 126.719 151.542 126.733C151.306 126.788 151.102 126.951 150.92 127.104C150.634 127.344 150.382 127.634 150.158 127.931C150.149 127.942 150.142 127.954 150.134 127.965L150.134 127.965ZM162.133 126.472C162.273 126.706 162.23 126.996 161.933 127.025C161.709 127.046 161.496 126.881 161.338 126.697C161.055 126.697 160.437 127.164 160.281 127.283C159.971 127.52 159.686 127.789 159.42 128.074C158.834 128.703 158.34 129.416 157.98 130.198C157.727 130.745 156.712 129.857 156.886 129.396C157.356 128.15 157.863 126.918 158.317 125.665C158.482 125.212 159.247 125.736 159.402 126.2C160.368 125.463 161.401 125.242 162.133 126.472L162.133 126.472ZM167.49 126.635C167.909 126.28 168.596 126.926 168.2 127.262C167.513 127.844 166.797 128.395 166.05 128.899C165.449 129.304 164.765 129.801 164.04 129.947C163.213 130.114 162.426 129.344 162.405 128.525C162.382 127.586 163.089 126.515 163.546 125.728C163.852 125.2 164.884 126.107 164.64 126.529C164.278 127.152 163.962 127.766 163.709 128.441C163.673 128.531 163.64 128.623 163.609 128.715C164.468 128.562 166.501 127.472 167.49 126.635L167.49 126.635ZM165.681 124.419C165.515 124.962 164.438 124.106 164.587 123.618C164.864 122.709 165.229 121.842 165.686 121.009C165.977 120.476 167.016 121.379 166.78 121.81C166.323 122.643 165.958 123.51 165.681 124.419ZM170.411 126.471C170.525 127.563 170.23 128.654 169.547 129.52C168.911 130.328 167.927 130.693 167.152 129.834C165.709 128.232 168.101 125.898 169.453 125.222C169.866 125.015 170.656 125.895 170.351 126.242C170.382 126.315 170.403 126.392 170.411 126.471L170.411 126.471ZM168.969 127.881C169.105 127.592 169.196 127.294 169.249 126.99C169.042 127.171 168.85 127.369 168.674 127.587C168.461 127.852 168.279 128.137 168.133 128.444C168.066 128.584 168.001 128.727 167.953 128.875C167.94 128.913 167.925 129.032 167.907 129.136C168.071 129.001 168.223 128.924 168.375 128.761C168.618 128.501 168.818 128.203 168.969 127.881H168.969Z" fill="white"/>
</g>
<defs>
<clipPath id="clip0_6_2">
<rect width="198.841" height="199.312" fill="white"/>
</clipPath>
</defs>
</svg>
